G04*
G04 #@! TF.GenerationSoftware,Altium Limited,Altium Designer,23.3.1 (30)*
G04*
G04 Layer_Physical_Order=2*
G04 Layer_Color=16711680*
%FSLAX25Y25*%
%MOIN*%
G70*
G04*
G04 #@! TF.SameCoordinates,0E418F4D-2CBD-42A3-A537-BC7B457329F7*
G04*
G04*
G04 #@! TF.FilePolarity,Positive*
G04*
G01*
G75*
%ADD22R,0.06102X0.06102*%
%ADD23C,0.06102*%
%ADD25C,0.03937*%
%ADD26C,0.07000*%
%ADD27C,0.13780*%
%ADD28R,0.07323X0.07323*%
%ADD29C,0.07323*%
%ADD30C,0.04331*%
%ADD31R,0.04331X0.04331*%
%ADD32C,0.04724*%
%ADD33R,0.07323X0.07323*%
G36*
X299213Y0D02*
X0D01*
Y255906D01*
X299213D01*
Y0D01*
D02*
G37*
%LPC*%
G36*
X36614Y240161D02*
X35386D01*
X34201Y239844D01*
X33138Y239230D01*
X32270Y238362D01*
X31656Y237299D01*
X31339Y236114D01*
Y234886D01*
X31656Y233701D01*
X32270Y232638D01*
X33138Y231770D01*
X34201Y231156D01*
X35386Y230839D01*
X36614D01*
X37799Y231156D01*
X38862Y231770D01*
X39730Y232638D01*
X40344Y233701D01*
X40661Y234886D01*
Y236114D01*
X40344Y237299D01*
X39730Y238362D01*
X38862Y239230D01*
X37799Y239844D01*
X36614Y240161D01*
D02*
G37*
G36*
X30661D02*
X21339D01*
Y230839D01*
X30661D01*
Y240161D01*
D02*
G37*
G36*
X122161Y234000D02*
X118000D01*
Y229839D01*
X118114D01*
X119299Y230156D01*
X120362Y230770D01*
X121230Y231638D01*
X121844Y232701D01*
X122161Y233886D01*
Y234000D01*
D02*
G37*
G36*
X148592Y232000D02*
X148500D01*
Y228000D01*
X152500D01*
Y228092D01*
X152193Y229237D01*
X151601Y230263D01*
X150763Y231101D01*
X149737Y231693D01*
X148592Y232000D01*
D02*
G37*
G36*
X147500D02*
X147408D01*
X146263Y231693D01*
X145237Y231101D01*
X144399Y230263D01*
X143807Y229237D01*
X143500Y228092D01*
Y228000D01*
X147500D01*
Y232000D01*
D02*
G37*
G36*
X72277Y239890D02*
X70723D01*
X69199Y239587D01*
X67763Y238992D01*
X66471Y238128D01*
X65372Y237029D01*
X64508Y235737D01*
X63913Y234301D01*
X63610Y232777D01*
Y231223D01*
X63913Y229699D01*
X64508Y228263D01*
X65372Y226971D01*
X66471Y225872D01*
X67763Y225008D01*
X69199Y224413D01*
X70723Y224110D01*
X72277D01*
X73801Y224413D01*
X75237Y225008D01*
X76529Y225872D01*
X77628Y226971D01*
X78492Y228263D01*
X79087Y229699D01*
X79390Y231223D01*
Y232777D01*
X79087Y234301D01*
X78492Y235737D01*
X77628Y237029D01*
X76529Y238128D01*
X75237Y238992D01*
X73801Y239587D01*
X72277Y239890D01*
D02*
G37*
G36*
X152500Y227000D02*
X148500D01*
Y223000D01*
X148592D01*
X149737Y223307D01*
X150763Y223899D01*
X151601Y224737D01*
X152193Y225763D01*
X152500Y226908D01*
Y227000D01*
D02*
G37*
G36*
X147500D02*
X143500D01*
Y226908D01*
X143807Y225763D01*
X144399Y224737D01*
X145237Y223899D01*
X146263Y223307D01*
X147408Y223000D01*
X147500D01*
Y227000D01*
D02*
G37*
G36*
X101600Y248094D02*
X55600D01*
X54825Y247992D01*
X54402Y247817D01*
X54103Y247693D01*
X53483Y247217D01*
X46427Y240161D01*
X45386D01*
X44201Y239844D01*
X43138Y239230D01*
X42270Y238362D01*
X41656Y237299D01*
X41339Y236114D01*
Y234886D01*
X41656Y233701D01*
X42270Y232638D01*
X43138Y231770D01*
X44201Y231156D01*
X45386Y230839D01*
X46614D01*
X47799Y231156D01*
X48862Y231770D01*
X49730Y232638D01*
X50344Y233701D01*
X50661Y234886D01*
Y235927D01*
X56840Y242106D01*
X100360D01*
X104437Y238029D01*
X103770Y237362D01*
X103156Y236299D01*
X102839Y235114D01*
Y235035D01*
X102339Y234786D01*
X102161Y234920D01*
Y239161D01*
X92839D01*
Y229839D01*
X98551D01*
X111007Y217383D01*
X111627Y216907D01*
X112349Y216608D01*
X113124Y216506D01*
X124760D01*
X144883Y196383D01*
X145503Y195907D01*
X146225Y195608D01*
X147000Y195506D01*
X152260D01*
X253049Y94716D01*
X253670Y94240D01*
X254392Y93941D01*
X255167Y93839D01*
X284829D01*
X285436Y93233D01*
X286462Y92640D01*
X287606Y92333D01*
X288791D01*
X289936Y92640D01*
X290962Y93233D01*
X291800Y94070D01*
X292392Y95096D01*
X292699Y96241D01*
Y97426D01*
X292392Y98570D01*
X291800Y99597D01*
X290962Y100434D01*
X289936Y101027D01*
X288791Y101333D01*
X287606D01*
X286462Y101027D01*
X285436Y100434D01*
X284829Y99827D01*
X256407D01*
X155617Y200617D01*
X154997Y201093D01*
X154275Y201392D01*
X153500Y201494D01*
X148240D01*
X128117Y221617D01*
X127497Y222093D01*
X126775Y222392D01*
X126000Y222494D01*
X114364D01*
X107482Y229377D01*
X107673Y229839D01*
X108114D01*
X109299Y230156D01*
X110362Y230770D01*
X111230Y231638D01*
X111844Y232701D01*
X112161Y233886D01*
Y234636D01*
X112339Y234764D01*
X112839Y234507D01*
Y233886D01*
X113156Y232701D01*
X113770Y231638D01*
X114638Y230770D01*
X115701Y230156D01*
X116886Y229839D01*
X117000D01*
Y234500D01*
X117500D01*
Y235000D01*
X122161D01*
Y235114D01*
X121844Y236299D01*
X121230Y237362D01*
X120362Y238230D01*
X119299Y238844D01*
X119067Y238906D01*
X119133Y239406D01*
X271860D01*
X283479Y227787D01*
X283537Y226673D01*
X283903Y225546D01*
X284549Y224552D01*
X285429Y223759D01*
X286485Y223221D01*
X287644Y222975D01*
X288827Y223037D01*
X289954Y223403D01*
X290948Y224049D01*
X291741Y224929D01*
X292279Y225985D01*
X292525Y227144D01*
X292463Y228327D01*
X292097Y229454D01*
X291451Y230448D01*
X290571Y231241D01*
X289515Y231779D01*
X288356Y232025D01*
X287742Y231993D01*
X275217Y244517D01*
X274597Y244993D01*
X273875Y245292D01*
X273100Y245394D01*
X115400D01*
X114625Y245292D01*
X113903Y244993D01*
X113283Y244517D01*
X110054Y241288D01*
X109617Y241317D01*
X103717Y247217D01*
X103097Y247693D01*
X102375Y247992D01*
X101600Y248094D01*
D02*
G37*
G36*
X126500Y210500D02*
Y207653D01*
X129347D01*
X129133Y208451D01*
X128690Y209218D01*
X128064Y209844D01*
X127298Y210286D01*
X126500Y210500D01*
D02*
G37*
G36*
X125500D02*
X124702Y210286D01*
X123936Y209844D01*
X123310Y209218D01*
X122867Y208451D01*
X122653Y207653D01*
X125500D01*
Y210500D01*
D02*
G37*
G36*
X22618Y213472D02*
X14516D01*
Y205370D01*
X22618D01*
Y213472D01*
D02*
G37*
G36*
X129347Y206653D02*
X126500D01*
Y203807D01*
X127298Y204020D01*
X128064Y204463D01*
X128690Y205089D01*
X129133Y205856D01*
X129347Y206653D01*
D02*
G37*
G36*
X125500D02*
X122653D01*
X122867Y205856D01*
X123310Y205089D01*
X123936Y204463D01*
X124702Y204020D01*
X125500Y203807D01*
Y206653D01*
D02*
G37*
G36*
X91904Y220994D02*
X59657D01*
X58882Y220892D01*
X58160Y220593D01*
X57540Y220117D01*
X48931Y211508D01*
X46835D01*
Y205177D01*
X53165D01*
Y207274D01*
X60898Y215006D01*
X90663D01*
X99545Y206124D01*
X99617Y205856D01*
X100060Y205089D01*
X100686Y204463D01*
X101452Y204021D01*
X102307Y203791D01*
X103193D01*
X104048Y204021D01*
X104814Y204463D01*
X105440Y205089D01*
X105883Y205856D01*
X106112Y206711D01*
Y207596D01*
X105883Y208451D01*
X105440Y209218D01*
X104814Y209844D01*
X104048Y210287D01*
X103779Y210359D01*
X94021Y220117D01*
X93401Y220593D01*
X92678Y220892D01*
X91904Y220994D01*
D02*
G37*
G36*
X162277Y218890D02*
X160723D01*
X159199Y218587D01*
X157763Y217992D01*
X156471Y217128D01*
X155372Y216029D01*
X154508Y214737D01*
X153913Y213301D01*
X153610Y211777D01*
Y210223D01*
X153913Y208699D01*
X154508Y207263D01*
X155372Y205971D01*
X156471Y204872D01*
X157763Y204008D01*
X159199Y203413D01*
X160723Y203110D01*
X162277D01*
X163801Y203413D01*
X165237Y204008D01*
X166529Y204872D01*
X167628Y205971D01*
X168492Y207263D01*
X169087Y208699D01*
X169390Y210223D01*
Y211777D01*
X169087Y213301D01*
X168492Y214737D01*
X167628Y216029D01*
X166529Y217128D01*
X165237Y217992D01*
X163801Y218587D01*
X162277Y218890D01*
D02*
G37*
G36*
X19100Y203630D02*
X19067D01*
Y200079D01*
X22618D01*
Y200112D01*
X22342Y201143D01*
X21809Y202066D01*
X21055Y202821D01*
X20131Y203354D01*
X19100Y203630D01*
D02*
G37*
G36*
X18067D02*
X18034D01*
X17003Y203354D01*
X16080Y202821D01*
X15325Y202066D01*
X14792Y201143D01*
X14516Y200112D01*
Y200079D01*
X18067D01*
Y203630D01*
D02*
G37*
G36*
X22618Y199079D02*
X19067D01*
Y195528D01*
X19100D01*
X20131Y195804D01*
X21055Y196337D01*
X21809Y197091D01*
X22342Y198015D01*
X22618Y199046D01*
Y199079D01*
D02*
G37*
G36*
X18067D02*
X14516D01*
Y199046D01*
X14792Y198015D01*
X15325Y197091D01*
X16080Y196337D01*
X17003Y195804D01*
X18034Y195528D01*
X18067D01*
Y199079D01*
D02*
G37*
G36*
X79943Y210516D02*
X79057D01*
X78202Y210287D01*
X77436Y209844D01*
X76810Y209218D01*
X76367Y208451D01*
X76295Y208183D01*
X59764Y191651D01*
X51056D01*
X50417Y191823D01*
X49583D01*
X48778Y191607D01*
X48056Y191190D01*
X47467Y190601D01*
X47050Y189879D01*
X46835Y189074D01*
Y188241D01*
X47050Y187436D01*
X47467Y186714D01*
X48056Y186125D01*
X48778Y185708D01*
X49583Y185492D01*
X50417D01*
X51056Y185663D01*
X61004D01*
X61779Y185765D01*
X62501Y186064D01*
X63121Y186540D01*
X80529Y203949D01*
X80798Y204021D01*
X81564Y204463D01*
X82190Y205089D01*
X82633Y205856D01*
X82862Y206711D01*
Y207596D01*
X82633Y208451D01*
X82190Y209218D01*
X81564Y209844D01*
X80798Y210287D01*
X79943Y210516D01*
D02*
G37*
G36*
X284777Y201890D02*
X283223D01*
X281699Y201587D01*
X280263Y200992D01*
X278971Y200128D01*
X277872Y199029D01*
X277008Y197737D01*
X276413Y196301D01*
X276110Y194777D01*
Y193223D01*
X276413Y191699D01*
X277008Y190263D01*
X277872Y188971D01*
X278971Y187872D01*
X280263Y187008D01*
X281699Y186413D01*
X283223Y186110D01*
X284777D01*
X286301Y186413D01*
X287737Y187008D01*
X289029Y187872D01*
X290128Y188971D01*
X290992Y190263D01*
X291587Y191699D01*
X291890Y193223D01*
Y194777D01*
X291587Y196301D01*
X290992Y197737D01*
X290128Y199029D01*
X289029Y200128D01*
X287737Y200992D01*
X286301Y201587D01*
X284777Y201890D01*
D02*
G37*
G36*
X103250Y167193D02*
Y164346D01*
X106097D01*
X105883Y165144D01*
X105440Y165911D01*
X104814Y166537D01*
X104048Y166980D01*
X103250Y167193D01*
D02*
G37*
G36*
X102250D02*
X101452Y166980D01*
X100686Y166537D01*
X100060Y165911D01*
X99617Y165144D01*
X99403Y164346D01*
X102250D01*
Y167193D01*
D02*
G37*
G36*
X106097Y163346D02*
X103250D01*
Y160500D01*
X104048Y160713D01*
X104814Y161156D01*
X105440Y161782D01*
X105883Y162549D01*
X106097Y163346D01*
D02*
G37*
G36*
X102250D02*
X99403D01*
X99617Y162549D01*
X100060Y161782D01*
X100686Y161156D01*
X101452Y160713D01*
X102250Y160500D01*
Y163346D01*
D02*
G37*
G36*
X62346Y183994D02*
X11000D01*
X10225Y183892D01*
X9802Y183717D01*
X9503Y183593D01*
X8883Y183117D01*
X1383Y175617D01*
X907Y174997D01*
X608Y174275D01*
X506Y173500D01*
Y51000D01*
X608Y50225D01*
X907Y49503D01*
X1036Y49334D01*
X1108Y48792D01*
X1407Y48070D01*
X1883Y47450D01*
X14516Y34817D01*
Y30949D01*
X22618D01*
Y39051D01*
X18750D01*
X6948Y50854D01*
X6892Y51275D01*
X6593Y51997D01*
X6494Y52126D01*
Y172260D01*
X12240Y178006D01*
X49069D01*
X49135Y177506D01*
X48778Y177410D01*
X48056Y176994D01*
X47467Y176404D01*
X47050Y175682D01*
X46835Y174877D01*
Y174044D01*
X47050Y173239D01*
X47467Y172517D01*
X48056Y171928D01*
X48778Y171511D01*
X49583Y171295D01*
X50417D01*
X51222Y171511D01*
X51944Y171928D01*
X52533Y172517D01*
X52950Y173239D01*
X53165Y174044D01*
Y174877D01*
X52950Y175682D01*
X52533Y176404D01*
X51944Y176994D01*
X51222Y177410D01*
X50865Y177506D01*
X50931Y178006D01*
X61106D01*
X76295Y162817D01*
X76367Y162549D01*
X76810Y161782D01*
X77436Y161156D01*
X78202Y160713D01*
X79057Y160484D01*
X79943D01*
X80798Y160713D01*
X81564Y161156D01*
X82190Y161782D01*
X82633Y162549D01*
X82862Y163404D01*
Y164289D01*
X82633Y165144D01*
X82190Y165911D01*
X81564Y166537D01*
X80798Y166980D01*
X80529Y167051D01*
X64464Y183117D01*
X63844Y183593D01*
X63121Y183892D01*
X62346Y183994D01*
D02*
G37*
G36*
X19114Y167161D02*
X17886D01*
X16701Y166844D01*
X15638Y166230D01*
X14770Y165362D01*
X14156Y164299D01*
X13839Y163114D01*
Y161886D01*
X14156Y160701D01*
X14770Y159638D01*
X15638Y158770D01*
X16701Y158156D01*
X17886Y157839D01*
X19114D01*
X20299Y158156D01*
X21362Y158770D01*
X22230Y159638D01*
X22844Y160701D01*
X23161Y161886D01*
Y163114D01*
X22844Y164299D01*
X22230Y165362D01*
X21362Y166230D01*
X20299Y166844D01*
X19114Y167161D01*
D02*
G37*
G36*
X148592Y166667D02*
X147408D01*
X146263Y166360D01*
X145237Y165768D01*
X144399Y164930D01*
X143807Y163903D01*
X143500Y162759D01*
Y161574D01*
X143807Y160430D01*
X144399Y159404D01*
X145237Y158566D01*
X146263Y157973D01*
X147408Y157667D01*
X148592D01*
X149737Y157973D01*
X150763Y158566D01*
X151601Y159404D01*
X152193Y160430D01*
X152500Y161574D01*
Y162759D01*
X152193Y163903D01*
X151601Y164930D01*
X150763Y165768D01*
X149737Y166360D01*
X148592Y166667D01*
D02*
G37*
G36*
X288356Y166691D02*
X287173Y166629D01*
X286046Y166263D01*
X285052Y165618D01*
X284259Y164737D01*
X283721Y163682D01*
X283475Y162523D01*
X283537Y161339D01*
X283903Y160213D01*
X284549Y159219D01*
X285429Y158426D01*
X286485Y157888D01*
X287644Y157642D01*
X288827Y157704D01*
X289954Y158070D01*
X290948Y158715D01*
X291741Y159596D01*
X292279Y160652D01*
X292525Y161811D01*
X292463Y162994D01*
X292097Y164121D01*
X291451Y165114D01*
X290571Y165907D01*
X289515Y166445D01*
X288356Y166691D01*
D02*
G37*
G36*
X53165Y157941D02*
X50500D01*
Y155275D01*
X53165D01*
Y157941D01*
D02*
G37*
G36*
X49500D02*
X46835D01*
Y155275D01*
X49500D01*
Y157941D01*
D02*
G37*
G36*
X53165Y154275D02*
X50500D01*
Y151610D01*
X53165D01*
Y154275D01*
D02*
G37*
G36*
X49500D02*
X46835D01*
Y151610D01*
X49500D01*
Y154275D01*
D02*
G37*
G36*
X19114Y157161D02*
X17886D01*
X16701Y156844D01*
X15638Y156230D01*
X14770Y155362D01*
X14156Y154299D01*
X13839Y153114D01*
Y151886D01*
X14156Y150701D01*
X14770Y149638D01*
X15638Y148770D01*
X16701Y148156D01*
X17886Y147839D01*
X19114D01*
X20299Y148156D01*
X21362Y148770D01*
X22230Y149638D01*
X22844Y150701D01*
X23161Y151886D01*
Y153114D01*
X22844Y154299D01*
X22230Y155362D01*
X21362Y156230D01*
X20299Y156844D01*
X19114Y157161D01*
D02*
G37*
G36*
X103193Y145016D02*
X102307D01*
X101452Y144787D01*
X100686Y144344D01*
X100060Y143718D01*
X99617Y142951D01*
X99388Y142096D01*
Y141211D01*
X99617Y140356D01*
X100060Y139589D01*
X100686Y138963D01*
X101452Y138521D01*
X102307Y138291D01*
X103193D01*
X104048Y138521D01*
X104814Y138963D01*
X105440Y139589D01*
X105883Y140356D01*
X106112Y141211D01*
Y142096D01*
X105883Y142951D01*
X105440Y143718D01*
X104814Y144344D01*
X104048Y144787D01*
X103193Y145016D01*
D02*
G37*
G36*
X79943D02*
X79057D01*
X78202Y144787D01*
X77962Y144648D01*
X56390D01*
X55615Y144546D01*
X55192Y144370D01*
X54893Y144247D01*
X54273Y143771D01*
X48931Y138429D01*
X46835D01*
Y132098D01*
X53165D01*
Y134195D01*
X57630Y138660D01*
X77962D01*
X78202Y138521D01*
X79057Y138291D01*
X79943D01*
X80798Y138521D01*
X81564Y138963D01*
X82190Y139589D01*
X82633Y140356D01*
X82862Y141211D01*
Y142096D01*
X82633Y142951D01*
X82190Y143718D01*
X81564Y144344D01*
X80798Y144787D01*
X79943Y145016D01*
D02*
G37*
G36*
X23161Y147161D02*
X13839D01*
Y137839D01*
X18927D01*
X43304Y113461D01*
X43924Y112986D01*
X44646Y112687D01*
X45421Y112584D01*
X48944D01*
X49583Y112413D01*
X50417D01*
X51056Y112584D01*
X99925D01*
X100700Y112687D01*
X101422Y112986D01*
X102042Y113461D01*
X127029Y138449D01*
X127298Y138521D01*
X128064Y138963D01*
X128690Y139589D01*
X129133Y140356D01*
X129362Y141211D01*
Y142096D01*
X129133Y142951D01*
X128690Y143718D01*
X128064Y144344D01*
X127298Y144787D01*
X126443Y145016D01*
X125557D01*
X124702Y144787D01*
X123936Y144344D01*
X123310Y143718D01*
X122867Y142951D01*
X122795Y142683D01*
X98685Y118573D01*
X51056D01*
X50417Y118744D01*
X49583D01*
X48944Y118573D01*
X46662D01*
X23161Y142073D01*
Y147161D01*
D02*
G37*
G36*
X19114Y105661D02*
X19000D01*
Y101500D01*
X23161D01*
Y101614D01*
X22844Y102799D01*
X22230Y103862D01*
X21362Y104730D01*
X20299Y105344D01*
X19114Y105661D01*
D02*
G37*
G36*
X18000D02*
X17886D01*
X16701Y105344D01*
X15638Y104730D01*
X14770Y103862D01*
X14156Y102799D01*
X13839Y101614D01*
Y101500D01*
X18000D01*
Y105661D01*
D02*
G37*
G36*
X23161Y100500D02*
X19000D01*
Y96339D01*
X19114D01*
X20299Y96656D01*
X21362Y97270D01*
X22230Y98138D01*
X22844Y99201D01*
X23161Y100386D01*
Y100500D01*
D02*
G37*
G36*
X18000D02*
X13839D01*
Y100386D01*
X14156Y99201D01*
X14770Y98138D01*
X15638Y97270D01*
X16701Y96656D01*
X17886Y96339D01*
X18000D01*
Y100500D01*
D02*
G37*
G36*
X126443Y101709D02*
X125557D01*
X124702Y101479D01*
X123936Y101037D01*
X123310Y100411D01*
X122867Y99644D01*
X122638Y98789D01*
Y97904D01*
X122867Y97049D01*
X123310Y96282D01*
X123936Y95656D01*
X124702Y95213D01*
X125557Y94984D01*
X126443D01*
X127298Y95213D01*
X128064Y95656D01*
X128690Y96282D01*
X129133Y97049D01*
X129362Y97904D01*
Y98789D01*
X129133Y99644D01*
X128690Y100411D01*
X128064Y101037D01*
X127298Y101479D01*
X126443Y101709D01*
D02*
G37*
G36*
X103193D02*
X102307D01*
X101452Y101479D01*
X100686Y101037D01*
X100060Y100411D01*
X99617Y99644D01*
X99388Y98789D01*
Y97904D01*
X99617Y97049D01*
X100060Y96282D01*
X100686Y95656D01*
X101452Y95213D01*
X102307Y94984D01*
X103193D01*
X104048Y95213D01*
X104814Y95656D01*
X105440Y96282D01*
X105883Y97049D01*
X106112Y97904D01*
Y98789D01*
X105883Y99644D01*
X105440Y100411D01*
X104814Y101037D01*
X104048Y101479D01*
X103193Y101709D01*
D02*
G37*
G36*
X79943D02*
X79057D01*
X78202Y101479D01*
X77436Y101037D01*
X76810Y100411D01*
X76367Y99644D01*
X76138Y98789D01*
Y97904D01*
X76367Y97049D01*
X76810Y96282D01*
X77436Y95656D01*
X78202Y95213D01*
X79057Y94984D01*
X79943D01*
X80798Y95213D01*
X81564Y95656D01*
X82190Y96282D01*
X82633Y97049D01*
X82862Y97904D01*
Y98789D01*
X82633Y99644D01*
X82190Y100411D01*
X81564Y101037D01*
X80798Y101479D01*
X79943Y101709D01*
D02*
G37*
G36*
X53165Y84862D02*
X50500D01*
Y82197D01*
X53165D01*
Y84862D01*
D02*
G37*
G36*
X49500D02*
X46835D01*
Y82197D01*
X49500D01*
Y84862D01*
D02*
G37*
G36*
X53165Y81197D02*
X50500D01*
Y78531D01*
X53165D01*
Y81197D01*
D02*
G37*
G36*
X49500D02*
X46835D01*
Y78531D01*
X49500D01*
Y81197D01*
D02*
G37*
G36*
X50417Y104547D02*
X49583D01*
X48778Y104332D01*
X48056Y103915D01*
X47467Y103326D01*
X47050Y102604D01*
X46835Y101799D01*
Y100965D01*
X47050Y100160D01*
X47467Y99438D01*
X48056Y98849D01*
X48629Y98518D01*
X58765Y88383D01*
X59385Y87907D01*
X59684Y87783D01*
X60107Y87608D01*
X60882Y87506D01*
X102413D01*
X109795Y80124D01*
X109867Y79856D01*
X110310Y79089D01*
X110936Y78463D01*
X111702Y78021D01*
X112557Y77791D01*
X113443D01*
X114298Y78021D01*
X115064Y78463D01*
X115690Y79089D01*
X116133Y79856D01*
X116362Y80711D01*
Y81596D01*
X116133Y82451D01*
X115690Y83218D01*
X115064Y83844D01*
X114298Y84287D01*
X114029Y84359D01*
X105771Y92617D01*
X105151Y93093D01*
X104429Y93392D01*
X103654Y93494D01*
X62122D01*
X52864Y102753D01*
X52533Y103326D01*
X51944Y103915D01*
X51222Y104332D01*
X50417Y104547D01*
D02*
G37*
G36*
X19114Y95661D02*
X17886D01*
X16701Y95344D01*
X15638Y94730D01*
X14770Y93862D01*
X14156Y92799D01*
X13839Y91614D01*
Y90386D01*
X14156Y89201D01*
X14770Y88138D01*
X15638Y87270D01*
X16701Y86656D01*
X17886Y86339D01*
X19114D01*
X20299Y86656D01*
X21362Y87270D01*
X22031Y87939D01*
X26827D01*
X30006Y84760D01*
Y79000D01*
X30108Y78225D01*
X30407Y77503D01*
X30883Y76883D01*
X37883Y69883D01*
X38503Y69407D01*
X39225Y69108D01*
X40000Y69006D01*
X81346D01*
X82121Y69108D01*
X82844Y69407D01*
X83464Y69883D01*
X91529Y77949D01*
X91798Y78021D01*
X92564Y78463D01*
X93190Y79089D01*
X93633Y79856D01*
X93862Y80711D01*
Y81596D01*
X93633Y82451D01*
X93190Y83218D01*
X92564Y83844D01*
X91798Y84287D01*
X90943Y84516D01*
X90057D01*
X89202Y84287D01*
X88436Y83844D01*
X87810Y83218D01*
X87367Y82451D01*
X87295Y82183D01*
X80106Y74994D01*
X41240D01*
X35994Y80240D01*
Y86000D01*
X35892Y86775D01*
X35593Y87497D01*
X35117Y88117D01*
X30184Y93050D01*
X29564Y93526D01*
X28842Y93825D01*
X28067Y93927D01*
X22165D01*
X21362Y94730D01*
X20299Y95344D01*
X19114Y95661D01*
D02*
G37*
G36*
X148555Y101358D02*
X147372Y101296D01*
X146245Y100930D01*
X145251Y100285D01*
X144458Y99404D01*
X143920Y98348D01*
X143674Y97189D01*
X143706Y96575D01*
X114968Y67837D01*
X51056D01*
X50417Y68008D01*
X49583D01*
X48778Y67792D01*
X48056Y67375D01*
X47467Y66786D01*
X47050Y66064D01*
X46835Y65259D01*
Y64426D01*
X47050Y63621D01*
X47467Y62899D01*
X48056Y62310D01*
X48778Y61893D01*
X49583Y61677D01*
X50417D01*
X51056Y61848D01*
X116208D01*
X116983Y61950D01*
X117705Y62250D01*
X118325Y62725D01*
X147912Y92312D01*
X149026Y92371D01*
X150153Y92737D01*
X151146Y93382D01*
X151939Y94263D01*
X152477Y95318D01*
X152724Y96477D01*
X152662Y97660D01*
X152295Y98787D01*
X151650Y99781D01*
X150770Y100574D01*
X149714Y101112D01*
X148555Y101358D01*
D02*
G37*
G36*
X126443Y167209D02*
X125557D01*
X124702Y166980D01*
X123936Y166537D01*
X123310Y165911D01*
X122867Y165144D01*
X122638Y164289D01*
Y163404D01*
X122867Y162549D01*
X123310Y161782D01*
X123936Y161156D01*
X124702Y160713D01*
X124971Y160641D01*
X160506Y125106D01*
Y94240D01*
X122760Y56494D01*
X70000D01*
X69225Y56392D01*
X68503Y56093D01*
X67883Y55617D01*
X60417Y48151D01*
X53165D01*
Y48323D01*
X46835D01*
Y41992D01*
X53165D01*
Y42163D01*
X61657D01*
X62432Y42265D01*
X63155Y42564D01*
X63775Y43040D01*
X71240Y50506D01*
X124000D01*
X124775Y50608D01*
X125497Y50907D01*
X126117Y51383D01*
X165617Y90883D01*
X166093Y91503D01*
X166392Y92225D01*
X166494Y93000D01*
Y126346D01*
X166392Y127121D01*
X166093Y127843D01*
X165617Y128464D01*
X129205Y164876D01*
X129133Y165144D01*
X128690Y165911D01*
X128064Y166537D01*
X127298Y166980D01*
X126443Y167209D01*
D02*
G37*
G36*
X113500Y41193D02*
Y38346D01*
X116347D01*
X116133Y39144D01*
X115690Y39911D01*
X115064Y40537D01*
X114298Y40979D01*
X113500Y41193D01*
D02*
G37*
G36*
X91000D02*
Y38346D01*
X93847D01*
X93633Y39144D01*
X93190Y39911D01*
X92564Y40537D01*
X91798Y40979D01*
X91000Y41193D01*
D02*
G37*
G36*
X112500D02*
X111702Y40979D01*
X110936Y40537D01*
X110310Y39911D01*
X109867Y39144D01*
X109653Y38346D01*
X112500D01*
Y41193D01*
D02*
G37*
G36*
X90000D02*
X89202Y40979D01*
X88436Y40537D01*
X87810Y39911D01*
X87367Y39144D01*
X87153Y38346D01*
X90000D01*
Y41193D01*
D02*
G37*
G36*
X116347Y37346D02*
X113500D01*
Y34500D01*
X114298Y34713D01*
X115064Y35156D01*
X115690Y35782D01*
X116133Y36549D01*
X116347Y37346D01*
D02*
G37*
G36*
X93847D02*
X91000D01*
Y34500D01*
X91798Y34713D01*
X92564Y35156D01*
X93190Y35782D01*
X93633Y36549D01*
X93847Y37346D01*
D02*
G37*
G36*
X90000D02*
X87153D01*
X87367Y36549D01*
X87810Y35782D01*
X88436Y35156D01*
X89202Y34713D01*
X90000Y34500D01*
Y37346D01*
D02*
G37*
G36*
X112500D02*
X109653D01*
X109867Y36549D01*
X110310Y35782D01*
X110936Y35156D01*
X111702Y34713D01*
X112500Y34500D01*
Y37346D01*
D02*
G37*
G36*
X23161Y85661D02*
X13839D01*
Y76339D01*
X15506D01*
Y49200D01*
X15608Y48425D01*
X15907Y47703D01*
X16383Y47083D01*
X59583Y3883D01*
X60203Y3407D01*
X60925Y3108D01*
X61700Y3006D01*
X104000D01*
X104775Y3108D01*
X105497Y3407D01*
X106117Y3883D01*
X109617Y7383D01*
X110093Y8003D01*
X110392Y8725D01*
X110494Y9500D01*
Y12402D01*
X111230Y13138D01*
X111844Y14201D01*
X112161Y15386D01*
Y16136D01*
X112339Y16264D01*
X112839Y16007D01*
Y15386D01*
X113156Y14201D01*
X113770Y13138D01*
X114638Y12270D01*
X115701Y11656D01*
X116886Y11339D01*
X118114D01*
X119299Y11656D01*
X120362Y12270D01*
X121230Y13138D01*
X121844Y14201D01*
X122161Y15386D01*
Y16614D01*
X121844Y17799D01*
X121230Y18862D01*
X120362Y19730D01*
X119299Y20344D01*
X118114Y20661D01*
X117103D01*
X116896Y21161D01*
X150240Y54506D01*
X260959D01*
X283699Y31766D01*
Y30908D01*
X284005Y29763D01*
X284598Y28737D01*
X285436Y27899D01*
X286462Y27307D01*
X287606Y27000D01*
X288791D01*
X289936Y27307D01*
X290962Y27899D01*
X291800Y28737D01*
X292392Y29763D01*
X292699Y30908D01*
Y32092D01*
X292392Y33237D01*
X291800Y34263D01*
X290962Y35101D01*
X289936Y35693D01*
X288791Y36000D01*
X287933D01*
X264316Y59617D01*
X263696Y60093D01*
X262974Y60392D01*
X262199Y60494D01*
X149000D01*
X148225Y60392D01*
X147802Y60217D01*
X147503Y60093D01*
X146883Y59617D01*
X107927Y20661D01*
X106886D01*
X105701Y20344D01*
X104638Y19730D01*
X103770Y18862D01*
X103156Y17799D01*
X102839Y16614D01*
Y15386D01*
X103156Y14201D01*
X103770Y13138D01*
X104506Y12402D01*
Y10740D01*
X102760Y8994D01*
X62940D01*
X21494Y50440D01*
Y76339D01*
X23161D01*
Y85661D01*
D02*
G37*
G36*
X148555Y36025D02*
X147372Y35963D01*
X146245Y35597D01*
X145251Y34951D01*
X144458Y34071D01*
X143920Y33015D01*
X143674Y31856D01*
X143736Y30673D01*
X144102Y29546D01*
X144747Y28552D01*
X145628Y27759D01*
X146684Y27222D01*
X147843Y26975D01*
X149026Y27037D01*
X150153Y27403D01*
X151146Y28049D01*
X151939Y28929D01*
X152477Y29985D01*
X152724Y31144D01*
X152662Y32327D01*
X152295Y33454D01*
X151650Y34448D01*
X150770Y35241D01*
X149714Y35778D01*
X148555Y36025D01*
D02*
G37*
G36*
X19100Y29209D02*
X19067D01*
Y25658D01*
X22618D01*
Y25691D01*
X22342Y26721D01*
X21809Y27645D01*
X21055Y28399D01*
X20131Y28933D01*
X19100Y29209D01*
D02*
G37*
G36*
X18067D02*
X18034D01*
X17003Y28933D01*
X16080Y28399D01*
X15325Y27645D01*
X14792Y26721D01*
X14516Y25691D01*
Y25658D01*
X18067D01*
Y29209D01*
D02*
G37*
G36*
X22618Y24658D02*
X19067D01*
Y21106D01*
X19100D01*
X20131Y21383D01*
X21055Y21916D01*
X21809Y22670D01*
X22342Y23594D01*
X22618Y24624D01*
Y24658D01*
D02*
G37*
G36*
X18067D02*
X14516D01*
Y24624D01*
X14792Y23594D01*
X15325Y22670D01*
X16080Y21916D01*
X17003Y21383D01*
X18034Y21106D01*
X18067D01*
Y24658D01*
D02*
G37*
G36*
X102161Y20661D02*
X92839D01*
Y11339D01*
X102161D01*
Y20661D01*
D02*
G37*
G36*
X277777Y24390D02*
X276223D01*
X274699Y24087D01*
X273263Y23492D01*
X271971Y22628D01*
X270872Y21529D01*
X270008Y20237D01*
X269413Y18801D01*
X269110Y17277D01*
Y15723D01*
X269413Y14199D01*
X270008Y12763D01*
X270872Y11471D01*
X271971Y10372D01*
X273263Y9508D01*
X274699Y8913D01*
X276223Y8610D01*
X277777D01*
X279301Y8913D01*
X280737Y9508D01*
X282029Y10372D01*
X283128Y11471D01*
X283992Y12763D01*
X284587Y14199D01*
X284890Y15723D01*
Y17277D01*
X284587Y18801D01*
X283992Y20237D01*
X283128Y21529D01*
X282029Y22628D01*
X280737Y23492D01*
X279301Y24087D01*
X277777Y24390D01*
D02*
G37*
G36*
X36277Y17890D02*
X34723D01*
X33199Y17587D01*
X31763Y16992D01*
X30471Y16128D01*
X29372Y15029D01*
X28508Y13737D01*
X27913Y12301D01*
X27610Y10777D01*
Y9223D01*
X27913Y7699D01*
X28508Y6263D01*
X29372Y4971D01*
X30471Y3872D01*
X31763Y3008D01*
X33199Y2413D01*
X34723Y2110D01*
X36277D01*
X37801Y2413D01*
X39237Y3008D01*
X40529Y3872D01*
X41628Y4971D01*
X42492Y6263D01*
X43087Y7699D01*
X43390Y9223D01*
Y10777D01*
X43087Y12301D01*
X42492Y13737D01*
X41628Y15029D01*
X40529Y16128D01*
X39237Y16992D01*
X37801Y17587D01*
X36277Y17890D01*
D02*
G37*
%LPD*%
D22*
X18567Y209421D02*
D03*
Y35000D02*
D03*
D23*
Y199579D02*
D03*
Y25158D02*
D03*
D25*
X50000Y45157D02*
X61657D01*
X124000Y53500D02*
X163500Y93000D01*
X61657Y45157D02*
X70000Y53500D01*
X124000D01*
X163500Y93000D02*
Y126346D01*
X126000Y163846D02*
X163500Y126346D01*
X107500Y16000D02*
X149000Y57500D01*
X262199D02*
X288199Y31500D01*
X149000Y57500D02*
X262199D01*
X99817Y232807D02*
X113124Y219500D01*
X126000D01*
X147000Y198500D01*
X153500D02*
X255167Y96833D01*
X147000Y198500D02*
X153500D01*
X255167Y96833D02*
X288199D01*
X97500Y234500D02*
X99193Y232807D01*
X99817D01*
X107500Y9500D02*
Y16000D01*
X104000Y6000D02*
X107500Y9500D01*
X18500Y49200D02*
X61700Y6000D01*
X104000D01*
X91904Y218000D02*
X102750Y207154D01*
X59657Y218000D02*
X91904D01*
X50000Y208343D02*
X59657Y218000D01*
X4000Y49567D02*
Y50500D01*
Y49567D02*
X18567Y35000D01*
X3500Y51000D02*
Y173500D01*
Y51000D02*
X4000Y50500D01*
X3500Y173500D02*
X11000Y181000D01*
X62346D02*
X79500Y163846D01*
X11000Y181000D02*
X62346D01*
X81346Y72000D02*
X90500Y81154D01*
X40000Y72000D02*
X81346D01*
X50000Y64843D02*
X116208D01*
X148199Y96833D01*
X50000Y101382D02*
X60882Y90500D01*
X103654D01*
X113000Y81154D01*
X33000Y79000D02*
X40000Y72000D01*
X28067Y90933D02*
X33000Y86000D01*
Y79000D02*
Y86000D01*
X18567Y90933D02*
X28067D01*
X18500Y91000D02*
X18567Y90933D01*
X107500Y234500D02*
Y239200D01*
X101600Y245100D02*
X107500Y239200D01*
X55600Y245100D02*
X101600D01*
X46000Y235500D02*
X55600Y245100D01*
X45421Y115579D02*
X50000D01*
X18500Y142500D02*
X45421Y115579D01*
X18500Y49200D02*
Y81000D01*
X273100Y242400D02*
X288000Y227500D01*
X115400Y242400D02*
X273100D01*
X107500Y234500D02*
X115400Y242400D01*
X50000Y135264D02*
X56390Y141654D01*
X79500D01*
X99925Y115579D02*
X126000Y141654D01*
X50000Y115579D02*
X99925D01*
X61004Y188657D02*
X79500Y207154D01*
X50000Y188657D02*
X61004D01*
D26*
X288000Y162167D02*
D03*
X148000D02*
D03*
X288000Y227500D02*
D03*
X148000D02*
D03*
X148199Y31500D02*
D03*
Y96833D02*
D03*
X288199D02*
D03*
Y31500D02*
D03*
D27*
X161500Y211000D02*
D03*
X71500Y232000D02*
D03*
X35500Y10000D02*
D03*
X277000Y16500D02*
D03*
X284000Y194000D02*
D03*
D28*
X97500Y16000D02*
D03*
X26000Y235500D02*
D03*
X97500Y234500D02*
D03*
D29*
X107500Y16000D02*
D03*
X117500D02*
D03*
Y234500D02*
D03*
X18500Y101000D02*
D03*
X46000Y235500D02*
D03*
X36000D02*
D03*
X107500Y234500D02*
D03*
X18500Y152500D02*
D03*
Y162500D02*
D03*
Y91000D02*
D03*
D30*
X50000Y115579D02*
D03*
Y174461D02*
D03*
Y188657D02*
D03*
Y64843D02*
D03*
Y101382D02*
D03*
D31*
Y135264D02*
D03*
Y154775D02*
D03*
Y81697D02*
D03*
Y208343D02*
D03*
Y45157D02*
D03*
D32*
X102750Y98346D02*
D03*
X79500D02*
D03*
X126000D02*
D03*
Y207153D02*
D03*
X113000Y37846D02*
D03*
X102750Y163846D02*
D03*
X90500Y37846D02*
D03*
X126000Y163846D02*
D03*
X79500Y141654D02*
D03*
X90500Y81154D02*
D03*
X113000D02*
D03*
X126000Y141654D02*
D03*
X102750Y207154D02*
D03*
Y141654D02*
D03*
X79500Y163846D02*
D03*
Y207154D02*
D03*
D33*
X18500Y142500D02*
D03*
Y81000D02*
D03*
M02*
