G04*
G04 #@! TF.GenerationSoftware,Altium Limited,Altium Designer,23.3.1 (30)*
G04*
G04 Layer_Color=16711935*
%FSLAX25Y25*%
%MOIN*%
G70*
G04*
G04 #@! TF.SameCoordinates,0E418F4D-2CBD-42A3-A537-BC7B457329F7*
G04*
G04*
G04 #@! TF.FilePolarity,Positive*
G04*
G01*
G75*
%ADD10C,0.00787*%
G36*
X17297Y29777D02*
X17293D01*
X17286D01*
X17272D01*
X17250Y29773D01*
X17228Y29769D01*
X17202D01*
X17141Y29759D01*
X17075Y29748D01*
X17009Y29726D01*
X16951Y29704D01*
X16926Y29689D01*
X16904Y29671D01*
X16900Y29667D01*
X16889Y29653D01*
X16871Y29631D01*
X16853Y29602D01*
X16831Y29562D01*
X16817Y29518D01*
X16802Y29464D01*
X16798Y29405D01*
Y29384D01*
X16802Y29362D01*
X16806Y29329D01*
X16813Y29296D01*
X16820Y29260D01*
X16835Y29223D01*
X16853Y29187D01*
X16857Y29183D01*
X16864Y29173D01*
X16879Y29158D01*
X16893Y29136D01*
X16918Y29118D01*
X16944Y29096D01*
X16973Y29078D01*
X17009Y29063D01*
X17013D01*
X17028Y29056D01*
X17053Y29052D01*
X17086Y29045D01*
X17130Y29038D01*
X17184Y29034D01*
X17250Y29027D01*
X17326D01*
X19062D01*
Y28692D01*
X17344D01*
X17341D01*
X17330D01*
X17315D01*
X17293D01*
X17264Y28696D01*
X17235D01*
X17166Y28703D01*
X17086Y28710D01*
X17002Y28725D01*
X16926Y28747D01*
X16853Y28772D01*
X16849D01*
X16846Y28776D01*
X16824Y28787D01*
X16795Y28805D01*
X16755Y28830D01*
X16715Y28867D01*
X16671Y28907D01*
X16627Y28958D01*
X16591Y29016D01*
X16587Y29023D01*
X16576Y29045D01*
X16562Y29078D01*
X16547Y29125D01*
X16529Y29183D01*
X16514Y29249D01*
X16504Y29322D01*
X16500Y29402D01*
Y29435D01*
X16504Y29456D01*
X16507Y29485D01*
X16511Y29515D01*
X16525Y29591D01*
X16547Y29671D01*
X16580Y29755D01*
X16602Y29799D01*
X16627Y29839D01*
X16657Y29875D01*
X16689Y29911D01*
X16693Y29915D01*
X16696Y29919D01*
X16711Y29926D01*
X16726Y29937D01*
X16744Y29951D01*
X16769Y29966D01*
X16798Y29980D01*
X16831Y29999D01*
X16868Y30013D01*
X16911Y30028D01*
X16955Y30042D01*
X17006Y30057D01*
X17061Y30064D01*
X17122Y30075D01*
X17184Y30079D01*
X17253D01*
X17297Y29777D01*
D02*
G37*
G36*
X16613Y28313D02*
X16646Y28310D01*
X16682Y28302D01*
X16718Y28295D01*
X16758Y28281D01*
X16762D01*
X16766Y28277D01*
X16788Y28270D01*
X16820Y28255D01*
X16864Y28233D01*
X16915Y28204D01*
X16973Y28168D01*
X17031Y28128D01*
X17093Y28077D01*
X17097D01*
X17101Y28069D01*
X17122Y28051D01*
X17155Y28019D01*
X17202Y27971D01*
X17257Y27917D01*
X17323Y27847D01*
X17395Y27764D01*
X17472Y27673D01*
X17476Y27669D01*
X17486Y27655D01*
X17505Y27633D01*
X17526Y27607D01*
X17556Y27575D01*
X17588Y27534D01*
X17625Y27494D01*
X17665Y27447D01*
X17752Y27356D01*
X17840Y27265D01*
X17883Y27221D01*
X17927Y27181D01*
X17967Y27145D01*
X18007Y27116D01*
X18011D01*
X18014Y27109D01*
X18025Y27101D01*
X18040Y27094D01*
X18080Y27068D01*
X18127Y27039D01*
X18185Y27014D01*
X18247Y26989D01*
X18316Y26974D01*
X18382Y26967D01*
X18385D01*
X18389D01*
X18411Y26970D01*
X18447Y26974D01*
X18487Y26985D01*
X18538Y26999D01*
X18589Y27025D01*
X18640Y27058D01*
X18691Y27101D01*
X18699Y27109D01*
X18713Y27127D01*
X18731Y27152D01*
X18757Y27192D01*
X18779Y27243D01*
X18800Y27301D01*
X18815Y27371D01*
X18819Y27447D01*
Y27469D01*
X18815Y27483D01*
X18811Y27527D01*
X18800Y27578D01*
X18786Y27633D01*
X18760Y27695D01*
X18728Y27753D01*
X18684Y27808D01*
X18677Y27815D01*
X18658Y27829D01*
X18629Y27851D01*
X18586Y27873D01*
X18535Y27898D01*
X18469Y27920D01*
X18396Y27935D01*
X18313Y27942D01*
X18345Y28259D01*
X18349D01*
X18360Y28255D01*
X18378D01*
X18404Y28251D01*
X18433Y28244D01*
X18465Y28237D01*
X18506Y28226D01*
X18546Y28215D01*
X18633Y28186D01*
X18720Y28142D01*
X18764Y28117D01*
X18808Y28084D01*
X18848Y28051D01*
X18884Y28015D01*
X18888Y28011D01*
X18891Y28004D01*
X18902Y27993D01*
X18913Y27975D01*
X18928Y27953D01*
X18942Y27928D01*
X18961Y27898D01*
X18979Y27862D01*
X18997Y27822D01*
X19015Y27778D01*
X19030Y27731D01*
X19044Y27680D01*
X19055Y27626D01*
X19066Y27567D01*
X19070Y27505D01*
X19073Y27440D01*
Y27403D01*
X19070Y27378D01*
X19066Y27349D01*
X19062Y27312D01*
X19055Y27272D01*
X19048Y27232D01*
X19023Y27138D01*
X18986Y27043D01*
X18964Y26996D01*
X18939Y26948D01*
X18906Y26905D01*
X18870Y26865D01*
X18866Y26861D01*
X18862Y26854D01*
X18848Y26847D01*
X18833Y26832D01*
X18815Y26814D01*
X18789Y26796D01*
X18764Y26777D01*
X18731Y26755D01*
X18662Y26719D01*
X18575Y26683D01*
X18531Y26668D01*
X18480Y26661D01*
X18429Y26654D01*
X18374Y26650D01*
X18367D01*
X18349D01*
X18320Y26654D01*
X18280Y26657D01*
X18236Y26665D01*
X18185Y26679D01*
X18131Y26694D01*
X18076Y26715D01*
X18069Y26719D01*
X18051Y26726D01*
X18022Y26741D01*
X17981Y26763D01*
X17938Y26792D01*
X17883Y26828D01*
X17829Y26872D01*
X17767Y26923D01*
X17759Y26930D01*
X17738Y26948D01*
X17719Y26967D01*
X17701Y26985D01*
X17679Y27007D01*
X17650Y27036D01*
X17621Y27065D01*
X17588Y27101D01*
X17552Y27138D01*
X17512Y27181D01*
X17472Y27229D01*
X17424Y27280D01*
X17377Y27338D01*
X17326Y27396D01*
X17323Y27400D01*
X17315Y27407D01*
X17304Y27422D01*
X17290Y27440D01*
X17268Y27462D01*
X17246Y27487D01*
X17199Y27545D01*
X17144Y27607D01*
X17090Y27665D01*
X17042Y27716D01*
X17024Y27738D01*
X17006Y27757D01*
X17002Y27760D01*
X16991Y27771D01*
X16977Y27786D01*
X16955Y27804D01*
X16929Y27822D01*
X16904Y27844D01*
X16842Y27887D01*
Y26646D01*
X16544D01*
Y28317D01*
X16547D01*
X16562D01*
X16584D01*
X16613Y28313D01*
D02*
G37*
G36*
X17297Y204198D02*
X17293D01*
X17286D01*
X17272D01*
X17250Y204194D01*
X17228Y204191D01*
X17202D01*
X17141Y204180D01*
X17075Y204169D01*
X17009Y204147D01*
X16951Y204125D01*
X16926Y204111D01*
X16904Y204092D01*
X16900Y204089D01*
X16889Y204074D01*
X16871Y204052D01*
X16853Y204023D01*
X16831Y203983D01*
X16817Y203940D01*
X16802Y203885D01*
X16798Y203827D01*
Y203805D01*
X16802Y203783D01*
X16806Y203750D01*
X16813Y203717D01*
X16820Y203681D01*
X16835Y203645D01*
X16853Y203608D01*
X16857Y203605D01*
X16864Y203594D01*
X16879Y203579D01*
X16893Y203557D01*
X16918Y203539D01*
X16944Y203517D01*
X16973Y203499D01*
X17009Y203485D01*
X17013D01*
X17028Y203477D01*
X17053Y203474D01*
X17086Y203466D01*
X17130Y203459D01*
X17184Y203455D01*
X17250Y203448D01*
X17326D01*
X19062D01*
Y203113D01*
X17344D01*
X17341D01*
X17330D01*
X17315D01*
X17293D01*
X17264Y203117D01*
X17235D01*
X17166Y203124D01*
X17086Y203131D01*
X17002Y203146D01*
X16926Y203168D01*
X16853Y203193D01*
X16849D01*
X16846Y203197D01*
X16824Y203208D01*
X16795Y203226D01*
X16755Y203252D01*
X16715Y203288D01*
X16671Y203328D01*
X16627Y203379D01*
X16591Y203437D01*
X16587Y203444D01*
X16576Y203466D01*
X16562Y203499D01*
X16547Y203546D01*
X16529Y203605D01*
X16514Y203670D01*
X16504Y203743D01*
X16500Y203823D01*
Y203856D01*
X16504Y203878D01*
X16507Y203907D01*
X16511Y203936D01*
X16525Y204012D01*
X16547Y204092D01*
X16580Y204176D01*
X16602Y204220D01*
X16627Y204260D01*
X16657Y204296D01*
X16689Y204333D01*
X16693Y204336D01*
X16696Y204340D01*
X16711Y204347D01*
X16726Y204358D01*
X16744Y204373D01*
X16769Y204387D01*
X16798Y204402D01*
X16831Y204420D01*
X16868Y204434D01*
X16911Y204449D01*
X16955Y204464D01*
X17006Y204478D01*
X17061Y204486D01*
X17122Y204496D01*
X17184Y204500D01*
X17253D01*
X17297Y204198D01*
D02*
G37*
G36*
X18440Y202454D02*
X18447Y202447D01*
X18451Y202432D01*
X18462Y202414D01*
X18473Y202393D01*
X18487Y202367D01*
X18524Y202305D01*
X18564Y202232D01*
X18615Y202160D01*
X18673Y202083D01*
X18735Y202007D01*
X18739Y202003D01*
X18742Y201999D01*
X18753Y201988D01*
X18764Y201974D01*
X18800Y201941D01*
X18844Y201897D01*
X18895Y201854D01*
X18953Y201806D01*
X19012Y201766D01*
X19073Y201730D01*
Y201530D01*
X16544D01*
Y201839D01*
X18513D01*
X18509Y201843D01*
X18495Y201861D01*
X18473Y201883D01*
X18447Y201919D01*
X18415Y201959D01*
X18378Y202010D01*
X18338Y202068D01*
X18298Y202134D01*
Y202138D01*
X18294Y202141D01*
X18280Y202163D01*
X18262Y202200D01*
X18240Y202243D01*
X18214Y202294D01*
X18189Y202349D01*
X18163Y202403D01*
X18142Y202458D01*
X18440D01*
Y202454D01*
D02*
G37*
D10*
X28213Y15118D02*
Y45039D01*
X4787Y15118D02*
X28213D01*
X4787D02*
Y45039D01*
X28213D01*
Y189539D02*
Y219461D01*
X4787Y189539D02*
X28213D01*
X4787D02*
Y219461D01*
X28213D01*
M02*
