G04*
G04 #@! TF.GenerationSoftware,Altium Limited,Altium Designer,23.3.1 (30)*
G04*
G04 Layer_Color=65535*
%FSLAX25Y25*%
%MOIN*%
G70*
G04*
G04 #@! TF.SameCoordinates,0E418F4D-2CBD-42A3-A537-BC7B457329F7*
G04*
G04*
G04 #@! TF.FilePolarity,Positive*
G04*
G01*
G75*
%ADD10C,0.00787*%
%ADD11C,0.00500*%
%ADD12C,0.00984*%
%ADD13C,0.00600*%
%ADD14C,0.01000*%
D10*
X84862Y16000D02*
G03*
X84862Y16000I-394J0D01*
G01*
X50394Y141024D02*
G03*
X50394Y141024I-394J0D01*
G01*
X13362Y235500D02*
G03*
X13362Y235500I-394J0D01*
G01*
X84862Y234500D02*
G03*
X84862Y234500I-394J0D01*
G01*
X18894Y129469D02*
G03*
X18894Y129469I-394J0D01*
G01*
Y67968D02*
G03*
X18894Y67968I-394J0D01*
G01*
X50394Y214102D02*
G03*
X50394Y214102I-394J0D01*
G01*
X50394Y149016D02*
G03*
X50394Y149016I-394J0D01*
G01*
Y39398D02*
G03*
X50394Y39398I-394J0D01*
G01*
Y75937D02*
G03*
X50394Y75937I-394J0D01*
G01*
X27819Y15512D02*
Y44646D01*
X5181Y15512D02*
X27819D01*
X5181D02*
Y44646D01*
X27819D01*
Y189933D02*
Y219067D01*
X5181Y189933D02*
X27819D01*
X5181D02*
Y219067D01*
X27819D01*
D11*
X46313Y134547D02*
G03*
X46313Y116295I3687J-9126D01*
G01*
X53687D02*
G03*
X53687Y134547I-3687J9126D01*
G01*
Y189374D02*
G03*
X53687Y207626I-3687J9126D01*
G01*
X46313D02*
G03*
X46313Y189374I3687J-9126D01*
G01*
X46313Y173744D02*
G03*
X46313Y155492I3687J-9126D01*
G01*
X53687D02*
G03*
X53687Y173744I-3687J9126D01*
G01*
X46313Y64126D02*
G03*
X46313Y45874I3687J-9126D01*
G01*
X53687D02*
G03*
X53687Y64126I-3687J9126D01*
G01*
X46313Y100665D02*
G03*
X46313Y82413I3687J-9126D01*
G01*
X53687D02*
G03*
X53687Y100665I-3687J9126D01*
G01*
X224390Y161667D02*
X227539D01*
X222106Y158025D02*
X224390D01*
X222106Y165308D02*
X224390D01*
Y158025D02*
Y161667D01*
Y165308D01*
X207461Y161667D02*
X210610D01*
Y158025D02*
X212894D01*
X210610D02*
Y161667D01*
Y165308D01*
X212894D01*
X224390Y227000D02*
X227539D01*
X222106Y223358D02*
X224390D01*
X222106Y230642D02*
X224390D01*
Y223358D02*
Y227000D01*
Y230642D01*
X207461Y227000D02*
X210610D01*
Y223358D02*
X212894D01*
X210610D02*
Y227000D01*
Y230642D01*
X212894D01*
X126000Y198886D02*
X131118D01*
X120882D02*
X126000D01*
X120882Y172114D02*
Y198886D01*
Y172114D02*
X126000D01*
X131118D01*
Y198886D01*
X126000D02*
Y203531D01*
Y167468D02*
Y172114D01*
X79500Y133386D02*
X84618D01*
X74382D02*
X79500D01*
X74382Y106614D02*
Y133386D01*
Y106614D02*
X79500D01*
X84618D01*
Y133386D01*
X79500D02*
Y138031D01*
Y101968D02*
Y106614D01*
X208659Y97333D02*
X211809D01*
Y100975D02*
X214092D01*
X211809Y93692D02*
X214092D01*
X211809Y97333D02*
Y100975D01*
Y93692D02*
Y97333D01*
X225589D02*
X228738D01*
X223305Y100975D02*
X225589D01*
Y97333D02*
Y100975D01*
Y93692D02*
Y97333D01*
X223305Y93692D02*
X225589D01*
X208659Y32000D02*
X211809D01*
Y35642D02*
X214092D01*
X211809Y28358D02*
X214092D01*
X211809Y32000D02*
Y35642D01*
Y28358D02*
Y32000D01*
X225589D02*
X228738D01*
X223305Y35642D02*
X225589D01*
Y32000D02*
Y35642D01*
Y28358D02*
Y32000D01*
X223305Y28358D02*
X225589D01*
X85382Y46114D02*
X90500D01*
X95618D01*
Y72886D01*
X90500D02*
X95618D01*
X85382D02*
X90500D01*
X85382Y46114D02*
Y72886D01*
X90500Y41468D02*
Y46114D01*
Y72886D02*
Y77531D01*
X107882Y46114D02*
X113000D01*
X118118D01*
Y72886D01*
X113000D02*
X118118D01*
X107882D02*
X113000D01*
X107882Y46114D02*
Y72886D01*
X113000Y41468D02*
Y46114D01*
Y72886D02*
Y77531D01*
X126000Y133386D02*
X131118D01*
X120882D02*
X126000D01*
X120882Y106614D02*
Y133386D01*
Y106614D02*
X126000D01*
X131118D01*
Y133386D01*
X126000D02*
Y138031D01*
Y101968D02*
Y106614D01*
X97632Y172114D02*
X102750D01*
X107868D01*
Y198886D01*
X102750D02*
X107868D01*
X97632D02*
X102750D01*
X97632Y172114D02*
Y198886D01*
X102750Y167469D02*
Y172114D01*
Y198886D02*
Y203532D01*
Y133386D02*
X107868D01*
X97632D02*
X102750D01*
X97632Y106614D02*
Y133386D01*
Y106614D02*
X102750D01*
X107868D01*
Y133386D01*
X102750D02*
Y138031D01*
Y101968D02*
Y106614D01*
X74382Y172114D02*
X79500D01*
X84618D01*
Y198886D01*
X79500D02*
X84618D01*
X74382D02*
X79500D01*
X74382Y172114D02*
Y198886D01*
X79500Y167469D02*
Y172114D01*
Y198886D02*
Y203532D01*
D12*
X19059Y47303D02*
G03*
X19059Y47303I-492J0D01*
G01*
Y221724D02*
G03*
X19059Y221724I-492J0D01*
G01*
D13*
X86752Y8913D02*
Y27417D01*
X128248D01*
Y8913D02*
Y27417D01*
X86752Y8913D02*
X128248D01*
X15252Y228413D02*
X56748D01*
Y246917D01*
X15252D02*
X56748D01*
X15252Y228413D02*
Y246917D01*
X86752Y227413D02*
X128248D01*
Y245917D01*
X86752D02*
X128248D01*
X86752Y227413D02*
Y245917D01*
X7083Y131752D02*
X25587D01*
X7083D02*
Y173248D01*
X25587D01*
Y131752D02*
Y173248D01*
Y70252D02*
Y111748D01*
X7083D02*
X25587D01*
X7083Y70252D02*
Y111748D01*
Y70252D02*
X25587D01*
D14*
X145100Y184167D02*
Y190165D01*
X148099D01*
X149099Y189165D01*
Y187166D01*
X148099Y186166D01*
X145100D01*
X147099D02*
X149099Y184167D01*
X151098D02*
X153097D01*
X152098D01*
Y190165D01*
X151098Y189165D01*
X156096Y184167D02*
X158096D01*
X157096D01*
Y190165D01*
X156096Y189165D01*
X145002Y246001D02*
Y251999D01*
X148001D01*
X149000Y250999D01*
Y249000D01*
X148001Y248000D01*
X145002D01*
X147001D02*
X149000Y246001D01*
X151000Y247001D02*
X151999Y246001D01*
X153999D01*
X154998Y247001D01*
Y250999D01*
X153999Y251999D01*
X151999D01*
X151000Y250999D01*
Y250000D01*
X151999Y249000D01*
X154998D01*
X78000Y12501D02*
Y16499D01*
X77001Y17499D01*
X75001D01*
X74002Y16499D01*
Y12501D01*
X75001Y11501D01*
X77001D01*
X76001Y13500D02*
X78000Y11501D01*
X77001D02*
X78000Y12501D01*
X82999Y11501D02*
Y17499D01*
X80000Y14500D01*
X83998D01*
X62000Y144499D02*
X61001Y145499D01*
X59001D01*
X58002Y144499D01*
Y140501D01*
X59001Y139501D01*
X61001D01*
X62000Y140501D01*
X64000Y144499D02*
X64999Y145499D01*
X66999D01*
X67998Y144499D01*
Y143500D01*
X66999Y142500D01*
X65999D01*
X66999D01*
X67998Y141500D01*
Y140501D01*
X66999Y139501D01*
X64999D01*
X64000Y140501D01*
X10000Y247501D02*
Y251499D01*
X9001Y252499D01*
X7001D01*
X6002Y251499D01*
Y247501D01*
X7001Y246501D01*
X9001D01*
X8001Y248500D02*
X10000Y246501D01*
X9001D02*
X10000Y247501D01*
X15998Y246501D02*
X12000D01*
X15998Y250500D01*
Y251499D01*
X14999Y252499D01*
X12999D01*
X12000Y251499D01*
X79500Y248001D02*
Y251999D01*
X78501Y252999D01*
X76501D01*
X75502Y251999D01*
Y248001D01*
X76501Y247001D01*
X78501D01*
X77501Y249000D02*
X79500Y247001D01*
X78501D02*
X79500Y248001D01*
X85498Y252999D02*
X81500D01*
Y250000D01*
X83499Y251000D01*
X84499D01*
X85498Y250000D01*
Y248001D01*
X84499Y247001D01*
X82499D01*
X81500Y248001D01*
X10000Y117001D02*
Y120999D01*
X9001Y121999D01*
X7001D01*
X6002Y120999D01*
Y117001D01*
X7001Y116001D01*
X9001D01*
X8001Y118000D02*
X10000Y116001D01*
X9001D02*
X10000Y117001D01*
X12000Y120999D02*
X12999Y121999D01*
X14999D01*
X15998Y120999D01*
Y120000D01*
X14999Y119000D01*
X13999D01*
X14999D01*
X15998Y118000D01*
Y117001D01*
X14999Y116001D01*
X12999D01*
X12000Y117001D01*
X11000Y177001D02*
Y180999D01*
X10000Y181999D01*
X8001D01*
X7001Y180999D01*
Y177001D01*
X8001Y176001D01*
X10000D01*
X9001Y178000D02*
X11000Y176001D01*
X10000D02*
X11000Y177001D01*
X12999Y176001D02*
X14999D01*
X13999D01*
Y181999D01*
X12999Y180999D01*
X59000Y218999D02*
X58001Y219999D01*
X56001D01*
X55002Y218999D01*
Y215001D01*
X56001Y214001D01*
X58001D01*
X59000Y215001D01*
X64998Y214001D02*
X61000D01*
X64998Y218000D01*
Y218999D01*
X63999Y219999D01*
X61999D01*
X61000Y218999D01*
X62000Y183499D02*
X61000Y184499D01*
X59001D01*
X58001Y183499D01*
Y179501D01*
X59001Y178501D01*
X61000D01*
X62000Y179501D01*
X63999Y178501D02*
X65999D01*
X64999D01*
Y184499D01*
X63999Y183499D01*
X59500Y69999D02*
X58501Y70999D01*
X56501D01*
X55502Y69999D01*
Y66001D01*
X56501Y65001D01*
X58501D01*
X59500Y66001D01*
X65498Y70999D02*
X61500D01*
Y68000D01*
X63499Y69000D01*
X64499D01*
X65498Y68000D01*
Y66001D01*
X64499Y65001D01*
X62499D01*
X61500Y66001D01*
X120800Y213600D02*
Y219598D01*
X123799D01*
X124799Y218598D01*
Y216599D01*
X123799Y215599D01*
X120800D01*
X122799D02*
X124799Y213600D01*
X126798D02*
X128797D01*
X127798D01*
Y219598D01*
X126798Y218598D01*
X135795Y213600D02*
X131796D01*
X135795Y217599D01*
Y218598D01*
X134795Y219598D01*
X132796D01*
X131796Y218598D01*
X60500Y107999D02*
X59501Y108999D01*
X57501D01*
X56502Y107999D01*
Y104001D01*
X57501Y103001D01*
X59501D01*
X60500Y104001D01*
X65499Y103001D02*
Y108999D01*
X62500Y106000D01*
X66498D01*
X74300Y148100D02*
Y154098D01*
X77299D01*
X78299Y153098D01*
Y151099D01*
X77299Y150099D01*
X74300D01*
X76299D02*
X78299Y148100D01*
X80298D02*
X82297D01*
X81298D01*
Y154098D01*
X80298Y153098D01*
X85296D02*
X86296Y154098D01*
X88296D01*
X89295Y153098D01*
Y152099D01*
X88296Y151099D01*
X87296D01*
X88296D01*
X89295Y150099D01*
Y149100D01*
X88296Y148100D01*
X86296D01*
X85296Y149100D01*
X145099Y120333D02*
Y126331D01*
X148098D01*
X149098Y125332D01*
Y123332D01*
X148098Y122333D01*
X145099D01*
X147098D02*
X149098Y120333D01*
X151097D02*
X153096D01*
X152096D01*
Y126331D01*
X151097Y125332D01*
X156095D02*
X157095Y126331D01*
X159094D01*
X160094Y125332D01*
Y121333D01*
X159094Y120333D01*
X157095D01*
X156095Y121333D01*
Y125332D01*
X145099Y55000D02*
Y60998D01*
X148098D01*
X149098Y59998D01*
Y57999D01*
X148098Y56999D01*
X145099D01*
X147098D02*
X149098Y55000D01*
X151097Y59998D02*
X152096Y60998D01*
X154096D01*
X155096Y59998D01*
Y58999D01*
X154096Y57999D01*
X155096Y56999D01*
Y56000D01*
X154096Y55000D01*
X152096D01*
X151097Y56000D01*
Y56999D01*
X152096Y57999D01*
X151097Y58999D01*
Y59998D01*
X152096Y57999D02*
X154096D01*
X85300Y87600D02*
Y93598D01*
X88299D01*
X89299Y92598D01*
Y90599D01*
X88299Y89599D01*
X85300D01*
X87299D02*
X89299Y87600D01*
X91298Y93598D02*
X95297D01*
Y92598D01*
X91298Y88600D01*
Y87600D01*
X107800D02*
Y93598D01*
X110799D01*
X111799Y92598D01*
Y90599D01*
X110799Y89599D01*
X107800D01*
X109799D02*
X111799Y87600D01*
X117797Y93598D02*
X113798D01*
Y90599D01*
X115797Y91599D01*
X116797D01*
X117797Y90599D01*
Y88600D01*
X116797Y87600D01*
X114798D01*
X113798Y88600D01*
X120800Y148100D02*
Y154098D01*
X123799D01*
X124799Y153098D01*
Y151099D01*
X123799Y150099D01*
X120800D01*
X122799D02*
X124799Y148100D01*
X129797D02*
Y154098D01*
X126798Y151099D01*
X130797D01*
X97550Y213600D02*
Y219598D01*
X100549D01*
X101549Y218598D01*
Y216599D01*
X100549Y215599D01*
X97550D01*
X99549D02*
X101549Y213600D01*
X103548Y218598D02*
X104548Y219598D01*
X106547D01*
X107547Y218598D01*
Y217599D01*
X106547Y216599D01*
X105547D01*
X106547D01*
X107547Y215599D01*
Y214600D01*
X106547Y213600D01*
X104548D01*
X103548Y214600D01*
X97550Y148100D02*
Y154098D01*
X100549D01*
X101549Y153098D01*
Y151099D01*
X100549Y150099D01*
X97550D01*
X99549D02*
X101549Y148100D01*
X107547D02*
X103548D01*
X107547Y152099D01*
Y153098D01*
X106547Y154098D01*
X104548D01*
X103548Y153098D01*
X74300Y213600D02*
Y219598D01*
X77299D01*
X78299Y218598D01*
Y216599D01*
X77299Y215599D01*
X74300D01*
X76299D02*
X78299Y213600D01*
X80298D02*
X82297D01*
X81298D01*
Y219598D01*
X80298Y218598D01*
X9366Y57298D02*
X7366D01*
X8366D01*
Y52300D01*
X7366Y51300D01*
X6367D01*
X5367Y52300D01*
X15364Y51300D02*
X11365D01*
X15364Y55299D01*
Y56298D01*
X14364Y57298D01*
X12365D01*
X11365Y56298D01*
X9399Y231698D02*
X7399D01*
X8399D01*
Y226700D01*
X7399Y225700D01*
X6400D01*
X5400Y226700D01*
X11398Y225700D02*
X13397D01*
X12398D01*
Y231698D01*
X11398Y230698D01*
X44499Y23141D02*
X43928Y23713D01*
X43071Y23998D01*
X41928D01*
X41071Y23713D01*
X40500Y23141D01*
Y22570D01*
X40786Y21999D01*
X41071Y21713D01*
X41643Y21427D01*
X43356Y20856D01*
X43928Y20570D01*
X44214Y20285D01*
X44499Y19714D01*
Y18857D01*
X43928Y18285D01*
X43071Y18000D01*
X41928D01*
X41071Y18285D01*
X40500Y18857D01*
X46127Y21999D02*
X47841Y18000D01*
X49555Y21999D02*
X47841Y18000D01*
X47270Y16857D01*
X46699Y16286D01*
X46127Y16000D01*
X45842D01*
X50555Y21999D02*
Y18000D01*
Y20856D02*
X51412Y21713D01*
X51983Y21999D01*
X52840D01*
X53412Y21713D01*
X53697Y20856D01*
Y18000D01*
X56125Y23998D02*
Y19142D01*
X56411Y18285D01*
X56982Y18000D01*
X57553D01*
X55268Y21999D02*
X57268D01*
X61838D02*
Y18000D01*
Y21142D02*
X61267Y21713D01*
X60696Y21999D01*
X59839D01*
X59267Y21713D01*
X58696Y21142D01*
X58411Y20285D01*
Y19714D01*
X58696Y18857D01*
X59267Y18285D01*
X59839Y18000D01*
X60696D01*
X61267Y18285D01*
X61838Y18857D01*
X63438Y21999D02*
X66580Y18000D01*
Y21999D02*
X63438Y18000D01*
X39214Y35070D02*
X38643Y34784D01*
X38071Y34213D01*
X37786Y33642D01*
X37500Y32785D01*
Y31356D01*
X37786Y30500D01*
X38071Y29928D01*
X38643Y29357D01*
X39214Y29071D01*
X40356D01*
X40928Y29357D01*
X41499Y29928D01*
X41785Y30500D01*
X42070Y31356D01*
Y32785D01*
X41785Y33642D01*
X41499Y34213D01*
X40928Y34784D01*
X40356Y35070D01*
X39214D01*
X40071Y30214D02*
X41785Y28500D01*
X43470Y33070D02*
Y30214D01*
X43756Y29357D01*
X44327Y29071D01*
X45184D01*
X45755Y29357D01*
X46612Y30214D01*
Y33070D02*
Y29071D01*
X51611Y33070D02*
Y29071D01*
Y32214D02*
X51040Y32785D01*
X50469Y33070D01*
X49612D01*
X49040Y32785D01*
X48469Y32214D01*
X48183Y31356D01*
Y30785D01*
X48469Y29928D01*
X49040Y29357D01*
X49612Y29071D01*
X50469D01*
X51040Y29357D01*
X51611Y29928D01*
X53211Y33070D02*
Y29071D01*
Y31928D02*
X54068Y32785D01*
X54639Y33070D01*
X55496D01*
X56067Y32785D01*
X56353Y31928D01*
Y29071D01*
X58781Y35070D02*
Y30214D01*
X59067Y29357D01*
X59638Y29071D01*
X60209D01*
X57924Y33070D02*
X59924D01*
X61066D02*
Y30214D01*
X61352Y29357D01*
X61923Y29071D01*
X62780D01*
X63352Y29357D01*
X64209Y30214D01*
Y33070D02*
Y29071D01*
X65780Y33070D02*
Y29071D01*
Y31928D02*
X66637Y32785D01*
X67208Y33070D01*
X68065D01*
X68636Y32785D01*
X68922Y31928D01*
Y29071D01*
Y31928D02*
X69779Y32785D01*
X70350Y33070D01*
X71207D01*
X71778Y32785D01*
X72064Y31928D01*
Y29071D01*
M02*
