M48
;Layer_Color=9474304
;FILE_FORMAT=2:4
INCH,TZ
;TYPE=PLATED
T1F00S00C0.0295
T2F00S00C0.0315
T3F00S00C0.0394
T4F00S00C0.0450
T5F00S00C0.0488
T6F00S00C0.1181
%
T01
X5000Y4516
Y6484
Y8170
Y10138
Y11558
Y13526
Y15478
Y17446
Y18866
Y20834
T02
X9050Y3785
X11300
Y8115
X9050
X7950Y9835
X10275
X12600
Y14165
Y16385
X10275
Y14165
X7950
Y16385
Y20715
X10275
X12600Y20715
T03
X1857Y2516
Y3500
Y19958
Y20942
T04
X28820Y3150
Y9683
X14820
Y3150
X14800Y16217
Y22750
X28800
Y16217
T05
X9750Y1600
X10750
X11750
X1850Y8100
Y9100
Y10100
Y14250
Y15250
Y16250
X2600Y23550
X3600
X4600
X9750Y23450
X10750
X11750
T06
X27700Y1650
X3550Y1000
X7150Y23200
X16150Y21100
X28400Y19400
M30
