G04*
G04 #@! TF.GenerationSoftware,Altium Limited,Altium Designer,23.3.1 (30)*
G04*
G04 Layer_Color=32768*
%FSLAX25Y25*%
%MOIN*%
G70*
G04*
G04 #@! TF.SameCoordinates,0E418F4D-2CBD-42A3-A537-BC7B457329F7*
G04*
G04*
G04 #@! TF.FilePolarity,Positive*
G04*
G01*
G75*
%ADD10C,0.00787*%
%ADD34C,0.00197*%
D10*
X28213Y15118D02*
Y45039D01*
X4787Y15118D02*
X28213D01*
X4787D02*
Y45039D01*
X28213D01*
Y189539D02*
Y219461D01*
X4787Y189539D02*
X28213D01*
X4787D02*
Y219461D01*
X28213D01*
D34*
X63634Y125421D02*
G03*
X63634Y125421I-13634J0D01*
G01*
Y198500D02*
G03*
X63634Y198500I-13634J0D01*
G01*
X63634Y164618D02*
G03*
X63634Y164618I-13634J0D01*
G01*
Y55000D02*
G03*
X63634Y55000I-13634J0D01*
G01*
Y91539D02*
G03*
X63634Y91539I-13634J0D01*
G01*
X209626Y165131D02*
Y166293D01*
X200256Y165131D02*
X209626D01*
X200256Y158202D02*
Y165131D01*
Y158202D02*
X209626D01*
Y157041D02*
Y158202D01*
Y157041D02*
X225374D01*
Y158202D01*
X234744D01*
Y165131D01*
X225374D02*
X234744D01*
X225374D02*
Y166293D01*
X209626D02*
X225374D01*
X209626Y230465D02*
Y231626D01*
X200256Y230465D02*
X209626D01*
X200256Y223535D02*
Y230465D01*
Y223535D02*
X209626D01*
Y222374D02*
Y223535D01*
Y222374D02*
X225374D01*
Y223535D01*
X234744D01*
Y230465D01*
X225374D02*
X234744D01*
X225374D02*
Y231626D01*
X209626D02*
X225374D01*
X85768Y28394D02*
X129232D01*
Y7921D02*
Y28394D01*
X85768Y7921D02*
X129232D01*
X85768D02*
Y28394D01*
X14268Y227421D02*
Y247894D01*
Y227421D02*
X57732D01*
Y247894D01*
X14268D02*
X57732D01*
X85768Y226421D02*
Y246894D01*
Y226421D02*
X129232D01*
Y246894D01*
X85768D02*
X129232D01*
X6106Y130768D02*
Y174232D01*
X26579D01*
Y130768D02*
Y174232D01*
X6106Y130768D02*
X26579D01*
X6106Y69268D02*
X26579D01*
Y112732D01*
X6106D02*
X26579D01*
X6106Y69268D02*
Y112732D01*
X129346Y199870D02*
Y210500D01*
Y199870D02*
X132102D01*
Y171130D02*
Y199870D01*
X129346Y171130D02*
X132102D01*
X129346Y160500D02*
Y171130D01*
X122654Y160500D02*
X129346D01*
X122654D02*
Y171130D01*
X119898D02*
X122654D01*
X119898D02*
Y199870D01*
X122654D01*
Y210500D01*
X129346D01*
X82846Y134370D02*
Y145000D01*
Y134370D02*
X85602D01*
Y105630D02*
Y134370D01*
X82846Y105630D02*
X85602D01*
X82846Y95000D02*
Y105630D01*
X76154Y95000D02*
X82846D01*
X76154D02*
Y105630D01*
X73398D02*
X76154D01*
X73398D02*
Y134370D01*
X76154D01*
Y145000D01*
X82846D01*
X226573Y92707D02*
Y93869D01*
X235943D01*
Y100798D01*
X226573D02*
X235943D01*
X226573D02*
Y101959D01*
X210825D02*
X226573D01*
X210825Y100798D02*
Y101959D01*
X201455Y100798D02*
X210825D01*
X201455Y93869D02*
Y100798D01*
Y93869D02*
X210825D01*
Y92707D02*
Y93869D01*
Y92707D02*
X226573D01*
Y27374D02*
Y28535D01*
X235943D01*
Y35465D01*
X226573D02*
X235943D01*
X226573D02*
Y36626D01*
X210825D02*
X226573D01*
X210825Y35465D02*
Y36626D01*
X201455Y35465D02*
X210825D01*
X201455Y28535D02*
Y35465D01*
Y28535D02*
X210825D01*
Y27374D02*
Y28535D01*
Y27374D02*
X226573D01*
X87153Y34500D02*
Y45130D01*
X84398D02*
X87153D01*
X84398D02*
Y73870D01*
X87153D01*
Y84500D01*
X93846D01*
Y73870D02*
Y84500D01*
Y73870D02*
X96602D01*
Y45130D02*
Y73870D01*
X93846Y45130D02*
X96602D01*
X93846Y34500D02*
Y45130D01*
X87153Y34500D02*
X93846D01*
X109654D02*
Y45130D01*
X106898D02*
X109654D01*
X106898D02*
Y73870D01*
X109654D01*
Y84500D01*
X116346D01*
Y73870D02*
Y84500D01*
Y73870D02*
X119102D01*
Y45130D02*
Y73870D01*
X116346Y45130D02*
X119102D01*
X116346Y34500D02*
Y45130D01*
X109654Y34500D02*
X116346D01*
X129346Y134370D02*
Y145000D01*
Y134370D02*
X132102D01*
Y105630D02*
Y134370D01*
X129346Y105630D02*
X132102D01*
X129346Y95000D02*
Y105630D01*
X122654Y95000D02*
X129346D01*
X122654D02*
Y105630D01*
X119898D02*
X122654D01*
X119898D02*
Y134370D01*
X122654D01*
Y145000D01*
X129346D01*
X99403Y160500D02*
Y171130D01*
X96648D02*
X99403D01*
X96648D02*
Y199870D01*
X99403D01*
Y210500D01*
X106096D01*
Y199870D02*
Y210500D01*
Y199870D02*
X108852D01*
Y171130D02*
Y199870D01*
X106096Y171130D02*
X108852D01*
X106096Y160500D02*
Y171130D01*
X99403Y160500D02*
X106096D01*
Y134370D02*
Y145000D01*
Y134370D02*
X108852D01*
Y105630D02*
Y134370D01*
X106096Y105630D02*
X108852D01*
X106096Y95000D02*
Y105630D01*
X99404Y95000D02*
X106096D01*
X99404D02*
Y105630D01*
X96648D02*
X99404D01*
X96648D02*
Y134370D01*
X99404D01*
Y145000D01*
X106096D01*
X76154Y160500D02*
Y171130D01*
X73398D02*
X76154D01*
X73398D02*
Y199870D01*
X76154D01*
Y210500D01*
X82846D01*
Y199870D02*
Y210500D01*
Y199870D02*
X85602D01*
Y171130D02*
Y199870D01*
X82846Y171130D02*
X85602D01*
X82846Y160500D02*
Y171130D01*
X76154Y160500D02*
X82846D01*
M02*
