G04*
G04 #@! TF.GenerationSoftware,Altium Limited,Altium Designer,23.3.1 (30)*
G04*
G04 Layer_Color=8388736*
%FSLAX25Y25*%
%MOIN*%
G70*
G04*
G04 #@! TF.SameCoordinates,0E418F4D-2CBD-42A3-A537-BC7B457329F7*
G04*
G04*
G04 #@! TF.FilePolarity,Negative*
G04*
G01*
G75*
%ADD15C,0.07800*%
%ADD16C,0.14580*%
%ADD17R,0.08123X0.08123*%
%ADD18C,0.08123*%
%ADD19C,0.05131*%
%ADD20R,0.05131X0.05131*%
%ADD21C,0.05524*%
%ADD22R,0.06102X0.06102*%
%ADD23C,0.06102*%
%ADD24R,0.08123X0.08123*%
D15*
X288000Y162167D02*
D03*
X148000D02*
D03*
X288000Y227500D02*
D03*
X148000D02*
D03*
X148199Y31500D02*
D03*
Y96833D02*
D03*
X288199D02*
D03*
Y31500D02*
D03*
D16*
X161500Y211000D02*
D03*
X71500Y232000D02*
D03*
X35500Y10000D02*
D03*
X277000Y16500D02*
D03*
X284000Y194000D02*
D03*
D17*
X97500Y16000D02*
D03*
X26000Y235500D02*
D03*
X97500Y234500D02*
D03*
D18*
X107500Y16000D02*
D03*
X117500D02*
D03*
Y234500D02*
D03*
X18500Y101000D02*
D03*
X46000Y235500D02*
D03*
X36000D02*
D03*
X107500Y234500D02*
D03*
X18500Y152500D02*
D03*
Y162500D02*
D03*
Y91000D02*
D03*
D19*
X50000Y115579D02*
D03*
Y174461D02*
D03*
Y188657D02*
D03*
Y64843D02*
D03*
Y101382D02*
D03*
D20*
Y135264D02*
D03*
Y154775D02*
D03*
Y81697D02*
D03*
Y208343D02*
D03*
Y45157D02*
D03*
D21*
X102750Y98346D02*
D03*
X79500D02*
D03*
X126000D02*
D03*
Y207153D02*
D03*
X113000Y37846D02*
D03*
X102750Y163846D02*
D03*
X90500Y37846D02*
D03*
X126000Y163846D02*
D03*
X79500Y141654D02*
D03*
X90500Y81154D02*
D03*
X113000D02*
D03*
X126000Y141654D02*
D03*
X102750Y207154D02*
D03*
Y141654D02*
D03*
X79500Y163846D02*
D03*
Y207154D02*
D03*
D22*
X18567Y209421D02*
D03*
Y35000D02*
D03*
D23*
Y199579D02*
D03*
Y25158D02*
D03*
D24*
X18500Y142500D02*
D03*
Y81000D02*
D03*
M02*
