G04*
G04 #@! TF.GenerationSoftware,Altium Limited,Altium Designer,23.3.1 (30)*
G04*
G04 Layer_Color=16711935*
%FSLAX25Y25*%
%MOIN*%
G70*
G04*
G04 #@! TF.SameCoordinates,0E418F4D-2CBD-42A3-A537-BC7B457329F7*
G04*
G04*
G04 #@! TF.FilePolarity,Positive*
G04*
G01*
G75*
%ADD10C,0.00787*%
%ADD11C,0.00500*%
D10*
X50394Y141024D02*
G03*
X50394Y141024I-394J0D01*
G01*
Y214102D02*
G03*
X50394Y214102I-394J0D01*
G01*
X50394Y149016D02*
G03*
X50394Y149016I-394J0D01*
G01*
Y39398D02*
G03*
X50394Y39398I-394J0D01*
G01*
Y75937D02*
G03*
X50394Y75937I-394J0D01*
G01*
X27819Y15512D02*
Y44646D01*
X5181Y15512D02*
X27819D01*
X5181D02*
Y44646D01*
X27819D01*
Y189933D02*
Y219067D01*
X5181Y189933D02*
X27819D01*
X5181D02*
Y219067D01*
X27819D01*
D11*
X59842Y125421D02*
G03*
X59842Y125421I-9843J0D01*
G01*
Y198500D02*
G03*
X59842Y198500I-9843J0D01*
G01*
X59842Y164618D02*
G03*
X59842Y164618I-9843J0D01*
G01*
Y55000D02*
G03*
X59842Y55000I-9843J0D01*
G01*
Y91539D02*
G03*
X59842Y91539I-9843J0D01*
G01*
X224390Y161667D02*
X229016D01*
X205984D02*
X210610D01*
Y165308D01*
Y158025D02*
Y161667D01*
Y158025D02*
X224390D01*
Y161667D01*
Y165308D01*
X210610D02*
X224390D01*
Y227000D02*
X229016D01*
X205984D02*
X210610D01*
Y230642D01*
Y223358D02*
Y227000D01*
Y223358D02*
X224390D01*
Y227000D01*
Y230642D01*
X210610D02*
X224390D01*
X86752Y8913D02*
Y27417D01*
X128248D01*
Y8913D02*
Y27417D01*
X86752Y8913D02*
X128248D01*
X15252Y228413D02*
X56748D01*
Y246917D01*
X15252D02*
X56748D01*
X15252Y228413D02*
Y246917D01*
X86752Y227413D02*
X128248D01*
Y245917D01*
X86752D02*
X128248D01*
X86752Y227413D02*
Y245917D01*
X7083Y131752D02*
X25587D01*
X7083D02*
Y173248D01*
X25587D01*
Y131752D02*
Y173248D01*
Y70252D02*
Y111748D01*
X7083D02*
X25587D01*
X7083Y70252D02*
Y111748D01*
Y70252D02*
X25587D01*
X126000Y198886D02*
X131118D01*
X120882D02*
X126000D01*
X120882Y172114D02*
Y198886D01*
Y172114D02*
X126000D01*
X131118D01*
Y198886D01*
X126000D02*
Y204791D01*
Y166209D02*
Y172114D01*
X79500Y133386D02*
X84618D01*
X74382D02*
X79500D01*
X74382Y106614D02*
Y133386D01*
Y106614D02*
X79500D01*
X84618D01*
Y133386D01*
X79500D02*
Y139291D01*
Y100709D02*
Y106614D01*
X207183Y97333D02*
X211809D01*
X225589D02*
X230215D01*
X225589Y93692D02*
Y97333D01*
Y100975D01*
X211809D02*
X225589D01*
X211809Y97333D02*
Y100975D01*
Y93692D02*
Y97333D01*
Y93692D02*
X225589D01*
X207183Y32000D02*
X211809D01*
X225589D02*
X230215D01*
X225589Y28358D02*
Y32000D01*
Y35642D01*
X211809D02*
X225589D01*
X211809Y32000D02*
Y35642D01*
Y28358D02*
Y32000D01*
Y28358D02*
X225589D01*
X85382Y46114D02*
X90500D01*
X95618D01*
Y72886D01*
X90500D02*
X95618D01*
X85382D02*
X90500D01*
X85382Y46114D02*
Y72886D01*
X90500Y40209D02*
Y46114D01*
Y72886D02*
Y78791D01*
X107882Y46114D02*
X113000D01*
X118118D01*
Y72886D01*
X113000D02*
X118118D01*
X107882D02*
X113000D01*
X107882Y46114D02*
Y72886D01*
X113000Y40209D02*
Y46114D01*
Y72886D02*
Y78791D01*
X126000Y133386D02*
X131118D01*
X120882D02*
X126000D01*
X120882Y106614D02*
Y133386D01*
Y106614D02*
X126000D01*
X131118D01*
Y133386D01*
X126000D02*
Y139291D01*
Y100709D02*
Y106614D01*
X97632Y172114D02*
X102750D01*
X107868D01*
Y198886D01*
X102750D02*
X107868D01*
X97632D02*
X102750D01*
X97632Y172114D02*
Y198886D01*
X102750Y166209D02*
Y172114D01*
Y198886D02*
Y204791D01*
Y133386D02*
X107868D01*
X97632D02*
X102750D01*
X97632Y106614D02*
Y133386D01*
Y106614D02*
X102750D01*
X107868D01*
Y133386D01*
X102750D02*
Y139291D01*
Y100709D02*
Y106614D01*
X74382Y172114D02*
X79500D01*
X84618D01*
Y198886D01*
X79500D02*
X84618D01*
X74382D02*
X79500D01*
X74382Y172114D02*
Y198886D01*
X79500Y166209D02*
Y172114D01*
Y198886D02*
Y204791D01*
M02*
